<?xml version="1.0" standalone="no"?>
<!DOCTYPE svg PUBLIC "-//W3C//DTD SVG 20010904//EN"
 "http://www.w3.org/TR/2001/REC-SVG-20010904/DTD/svg10.dtd">
<svg version="1.0" xmlns="http://www.w3.org/2000/svg"
 width="290.000000pt" height="290.000000pt" viewBox="0 0 290.000000 290.000000"
 preserveAspectRatio="xMidYMid meet">
<metadata>
Created by potrace 1.14, written by Peter Selinger 2001-2017
</metadata>
<g transform="translate(0.000000,290.000000) scale(0.100000,-0.100000)"
fill="#000000" stroke="none">
<path d="M390 2191 c0 -11 -4 -21 -9 -23 -5 -1 -11 -39 -15 -83 -3 -45 -8
-103 -10 -130 -3 -28 -8 -86 -12 -130 -3 -44 -7 -93 -9 -110 -2 -16 -5 -95 -7
-174 -3 -157 -8 -140 57 -188 50 -38 91 -45 162 -26 33 9 105 15 170 16 98 1
118 -2 162 -23 28 -13 51 -27 51 -32 0 -4 6 -8 13 -8 7 0 24 -13 39 -30 14
-16 28 -27 31 -23 4 3 5 -42 4 -99 -2 -84 -5 -108 -19 -122 -10 -10 -18 -22
-18 -27 0 -6 -4 -7 -10 -4 -5 3 -10 0 -10 -8 0 -18 -33 -48 -78 -69 -47 -21
-255 -22 -317 -1 -38 13 -95 25 -122 26 -7 0 -14 6 -17 14 -3 7 -12 13 -21 13
-8 0 -15 5 -15 11 0 5 -4 8 -9 4 -5 -3 -12 -1 -15 3 -3 5 -18 9 -33 8 l-28 -1
-3 -139 c-3 -138 -2 -140 22 -163 14 -13 29 -23 33 -23 4 0 30 -9 58 -19 102
-38 167 -48 321 -47 102 1 156 5 165 13 8 7 35 14 59 16 41 4 134 44 170 73 8
6 26 15 40 19 13 4 36 21 50 37 14 17 39 46 57 67 18 20 42 66 55 106 20 61
22 90 22 225 -1 202 -17 258 -103 348 -33 34 -66 62 -74 62 -8 0 -20 6 -26 14
-6 7 -26 17 -44 21 -17 4 -34 9 -37 10 -3 1 -18 7 -33 13 -15 7 -39 15 -53 18
-37 9 -235 11 -266 3 -28 -8 -28 -7 -29 44 -1 76 2 190 5 213 3 18 14 19 276
22 157 1 278 6 285 12 8 7 11 54 11 147 l-1 138 -437 3 c-427 2 -438 2 -438
-17z"/>
<path d="M1652 2193 c-13 -23 -20 -92 -27 -233 -2 -63 -8 -178 -11 -255 -15
-318 -16 -312 60 -355 44 -26 58 -29 101 -24 100 12 122 13 215 14 115 1 130
-2 183 -34 58 -36 87 -62 87 -79 0 -9 5 -17 12 -19 8 -3 13 -30 13 -84 0 -69
-3 -84 -28 -121 -15 -24 -27 -45 -27 -48 0 -14 -38 -43 -76 -58 -48 -18 -263
-22 -316 -5 -18 5 -51 14 -73 19 -22 5 -66 21 -97 35 -46 20 -62 23 -78 14
-19 -10 -21 -19 -19 -117 2 -136 10 -167 52 -186 55 -26 107 -46 107 -42 0 2
21 -3 48 -11 70 -23 336 -28 404 -7 29 8 64 16 78 18 30 4 143 55 148 67 2 5
18 15 35 23 41 18 56 31 92 80 17 22 33 42 36 45 12 9 49 85 49 100 0 8 7 33
15 55 17 48 17 311 0 323 -6 4 -12 23 -13 42 -5 73 -97 173 -205 224 -42 20
-83 36 -90 36 -7 0 -18 5 -24 11 -7 7 -73 11 -179 13 l-169 1 3 55 c4 79 9
116 23 171 l12 48 266 1 c146 0 266 2 268 4 3 3 7 241 4 279 -1 16 -29 17
-436 17 -403 0 -435 -1 -443 -17z"/>
<path d="M489 216 c-2 -2 -113 -6 -246 -8 -186 -2 -243 -6 -243 -15 0 -10 297
-13 1450 -13 1377 0 1450 1 1450 18 0 16 -37 17 -668 16 -368 0 -674 -4 -682
-9 -8 -5 -11 -4 -6 3 4 7 -1 10 -14 9 -11 -1 -20 -6 -20 -12 0 -5 -4 -4 -9 3
-4 8 -12 14 -16 14 -4 0 -12 -6 -16 -14 -5 -7 -9 -8 -9 -3 0 6 -64 10 -172 10
-104 0 -176 -4 -180 -10 -5 -6 -8 -5 -8 3 0 10 -5 10 -21 1 -16 -8 -20 -8 -14
1 9 14 -27 10 -37 -5 -5 -6 -8 -5 -8 4 0 10 -3 11 -14 2 -10 -9 -16 -9 -21 -1
-5 8 -11 7 -23 -2 -9 -7 -13 -8 -10 -3 4 7 -70 10 -213 10 -120 0 -219 -4
-219 -9 0 -5 -6 -3 -13 3 -8 6 -16 9 -18 7z"/>
</g>
</svg>
