<svg width="169" height="52" viewBox="0 0 169 52" fill="none" xmlns="http://www.w3.org/2000/svg">
<path d="M74.5995 23.1583C73.0144 23.1583 71.4401 22.9411 69.8767 22.5069C68.335 22.0726 67.0213 21.4646 65.9355 20.6829L67.9224 16.8069C68.791 17.4583 69.8007 17.9794 70.9515 18.3703C72.1024 18.7394 73.275 18.924 74.4693 18.924C75.8373 18.924 76.9121 18.6526 77.6938 18.1097C78.4973 17.5669 78.899 16.8069 78.899 15.8297C78.899 15.2 78.7361 14.6571 78.4104 14.2011C78.0847 13.7234 77.5201 13.3651 76.7167 13.1263C75.9133 12.8657 74.795 12.7354 73.3618 12.7354H67.6293L68.8018 0H82.5795V4.07143H70.5933L73.2315 1.75886L72.3847 10.944L69.779 8.63143H74.5344C76.7927 8.63143 78.6058 8.94629 79.9738 9.576C81.3635 10.184 82.3733 11.02 83.003 12.084C83.6327 13.1263 83.9475 14.3206 83.9475 15.6669C83.9475 17.0131 83.611 18.2617 82.9378 19.4126C82.2864 20.5417 81.2658 21.4537 79.8761 22.1486C78.5081 22.8217 76.7493 23.1583 74.5995 23.1583Z" fill="#BBA260"/>
<path d="M93.7162 23.1583C92.131 23.1583 90.5567 22.9411 88.9933 22.5069C87.4516 22.0726 86.1379 21.4646 85.0522 20.6829L87.039 16.8069C87.9076 17.4583 88.9173 17.9794 90.0682 18.3703C91.219 18.7394 92.3916 18.924 93.5859 18.924C94.9539 18.924 96.0287 18.6526 96.8105 18.1097C97.6139 17.5669 98.0156 16.8069 98.0156 15.8297C98.0156 15.2 97.8527 14.6571 97.527 14.2011C97.2013 13.7234 96.6367 13.3651 95.8333 13.1263C95.0299 12.8657 93.9116 12.7354 92.4785 12.7354H86.7459L87.9185 0H101.696V4.07143H89.7099L92.3482 1.75886L91.5013 10.944L88.8956 8.63143H93.651C95.9093 8.63143 97.7225 8.94629 99.0905 9.576C100.48 10.184 101.49 11.02 102.12 12.084C102.749 13.1263 103.064 14.3206 103.064 15.6669C103.064 17.0131 102.728 18.2617 102.054 19.4126C101.403 20.5417 100.382 21.4537 98.9927 22.1486C97.6247 22.8217 95.8659 23.1583 93.7162 23.1583Z" fill="#BBA260"/>
<line x1="8" y1="32.6583" x2="161" y2="32.6583" stroke="#BBA260"/>
<path d="M0.357422 51.6423L4.18542 43.2423H5.22942L9.05742 51.6423H7.94142L4.48542 43.8423H4.91742L1.46142 51.6423H0.357422ZM1.92942 49.4823L2.22942 48.6183H7.02942L7.34142 49.4823H1.92942Z" fill="#BBA260"/>
<path d="M19.7325 51.6423V43.2423H22.9485C23.6765 43.2423 24.2965 43.3583 24.8085 43.5903C25.3285 43.8223 25.7285 44.1543 26.0085 44.5863C26.2885 45.0183 26.4285 45.5383 26.4285 46.1463C26.4285 46.7463 26.2885 47.2663 26.0085 47.7063C25.7285 48.1383 25.3285 48.4703 24.8085 48.7023C24.2965 48.9343 23.6765 49.0503 22.9485 49.0503H20.3205L20.7885 48.5463V51.6423H19.7325ZM20.7885 48.6423L20.3205 48.1263H22.9245C23.7245 48.1263 24.3285 47.9543 24.7365 47.6103C25.1525 47.2663 25.3605 46.7783 25.3605 46.1463C25.3605 45.5143 25.1525 45.0263 24.7365 44.6823C24.3285 44.3383 23.7245 44.1663 22.9245 44.1663H20.3205L20.7885 43.6383V48.6423Z" fill="#BBA260"/>
<path d="M35.8821 51.6423L39.7101 43.2423H40.7541L44.5821 51.6423H43.4661L40.0101 43.8423H40.4421L36.9861 51.6423H35.8821ZM37.4541 49.4823L37.7541 48.6183H42.5541L42.8661 49.4823H37.4541Z" fill="#BBA260"/>
<path d="M55.2571 51.6423V43.2423H58.4731C59.2011 43.2423 59.8211 43.3583 60.3331 43.5903C60.8531 43.8223 61.2531 44.1543 61.5331 44.5863C61.8131 45.0183 61.9531 45.5383 61.9531 46.1463C61.9531 46.7463 61.8131 47.2623 61.5331 47.6943C61.2531 48.1263 60.8531 48.4583 60.3331 48.6903C59.8211 48.9223 59.2011 49.0383 58.4731 49.0383H55.8451L56.3131 48.5463V51.6423H55.2571ZM60.9331 51.6423L58.7731 48.5943H59.9251L62.0851 51.6423H60.9331ZM56.3131 48.6423L55.8451 48.1383H58.4491C59.2491 48.1383 59.8531 47.9663 60.2611 47.6223C60.6771 47.2703 60.8851 46.7783 60.8851 46.1463C60.8851 45.5143 60.6771 45.0263 60.2611 44.6823C59.8531 44.3383 59.2491 44.1663 58.4491 44.1663H55.8451L56.3131 43.6383V48.6423Z" fill="#BBA260"/>
<path d="M74.8513 51.6423V44.1663H71.9353V43.2423H78.8113V44.1663H75.9073V51.6423H74.8513Z" fill="#BBA260"/>
<path d="M89.5279 51.6423V43.2423H90.4039L94.1959 49.6743H93.7399L97.4959 43.2423H98.3599L98.3719 51.6423H97.3519L97.3399 44.8503H97.5919L94.1959 50.5983H93.7039L90.2719 44.8503H90.5479V51.6423H89.5279Z" fill="#BBA260"/>
<path d="M111.309 46.9263H115.677V47.8263H111.309V46.9263ZM111.405 50.7183H116.373V51.6423H110.349V43.2423H116.205V44.1663H111.405V50.7183Z" fill="#BBA260"/>
<path d="M127.736 51.6423V43.2423H128.612L134.264 50.3223H133.808V43.2423H134.864V51.6423H134L128.336 44.5623H128.792V51.6423H127.736Z" fill="#BBA260"/>
<path d="M148.49 51.6423V44.1663H145.574V43.2423H152.45V44.1663H149.546V51.6423H148.49Z" fill="#BBA260"/>
<path d="M165.438 51.7263C164.806 51.7263 164.198 51.6263 163.614 51.4263C163.038 51.2263 162.59 50.9703 162.27 50.6583L162.666 49.8303C162.978 50.1103 163.382 50.3463 163.878 50.5383C164.374 50.7303 164.894 50.8263 165.438 50.8263C165.942 50.8263 166.35 50.7663 166.662 50.6463C166.982 50.5263 167.218 50.3623 167.37 50.1543C167.522 49.9383 167.598 49.7023 167.598 49.4463C167.598 49.1423 167.502 48.8983 167.31 48.7143C167.126 48.5223 166.882 48.3703 166.578 48.2583C166.274 48.1463 165.938 48.0503 165.57 47.9703C165.21 47.8903 164.846 47.7983 164.478 47.6943C164.118 47.5823 163.786 47.4463 163.482 47.2863C163.178 47.1183 162.934 46.8943 162.75 46.6143C162.566 46.3263 162.474 45.9623 162.474 45.5223C162.474 45.0903 162.586 44.6983 162.81 44.3463C163.034 43.9863 163.378 43.6983 163.842 43.4823C164.314 43.2663 164.91 43.1583 165.63 43.1583C166.118 43.1583 166.598 43.2223 167.07 43.3503C167.542 43.4783 167.95 43.6623 168.294 43.9023L167.934 44.7423C167.574 44.5103 167.194 44.3383 166.794 44.2263C166.394 44.1143 166.006 44.0583 165.63 44.0583C165.142 44.0583 164.738 44.1223 164.418 44.2503C164.106 44.3783 163.878 44.5503 163.734 44.7663C163.59 44.9743 163.518 45.2103 163.518 45.4743C163.518 45.7863 163.61 46.0383 163.794 46.2303C163.978 46.4143 164.222 46.5623 164.526 46.6743C164.83 46.7783 165.162 46.8743 165.522 46.9623C165.89 47.0423 166.258 47.1343 166.626 47.2383C166.994 47.3423 167.326 47.4783 167.622 47.6463C167.926 47.8063 168.17 48.0263 168.354 48.3063C168.546 48.5863 168.642 48.9423 168.642 49.3743C168.642 49.7983 168.526 50.1903 168.294 50.5503C168.07 50.9023 167.718 51.1863 167.238 51.4023C166.766 51.6183 166.166 51.7263 165.438 51.7263Z" fill="#BBA260"/>
</svg>
